<?xml version='1.0' encoding='utf-8'?>
<svg xmlns="http://www.w3.org/2000/svg" version="1.1" width="600px" height="976px" viewBox="0 0 600 976"> <g id="layer1"> <g style="fill:rgb(0,0,0); fill-opacity:1.0; stroke-linejoin: miter"> <path d="M403.444,249.34702Q397.42334,249.7582,393.9747,252.75922Q392.42993,253.30171,386.8825,264.38776Q384.9945,266.88297,382.97528,267.72852Q381.2809,268.61264,377.6206,268.89667Q360.42554,268.8661,357.90424,269.40982Q352.87152,269.9312,348.0125,271.45343Q337.14398,274.8034,325.8423,285.90805Q293.41605,320.119,305.0789,346.33142L495.04895,467.77264Q497.68408,445.95074,494.80438,436.90826Q493.7602,433.22363,491.8908,429.97565L483.4255,416.66028L479.2395,409.08795Q475.5415,401.819,472.0632,391.46036Q466.86316,378.44788,448.66937,300.09082Q445.56464,288.4224,441.87518,279.7024Q429.23157,248.16805,403.6455,249.33339"/> </g> <g style="fill:rgb(0,0,0); fill-opacity:1.0; stroke-linejoin: miter"> <path d="M434.65613,425.56607Q328.12683,428.4668,306.79156,447.85526Q294.31,460.27182,292.37595,480.69867Q290.87546,482.19574,287.35526,577.006Q286.41998,593.1963,284.08984,617.8814L203.14252,636.3636Q229.92072,661.75146,249.19577,668.13983Q267.45502,675.26245,310.7364,673.9271L306.74106,708.98785L496.06604,709.11816L489.94073,672.661Q520.0321,675.2401,531.2519,668.1885Q543.63196,661.69,548.81396,638.44507Q559.1139,573.2252,545.16205,485.9038Q538.27673,451.57092,514.2012,438.95264Q490.52853,425.5401,434.67133,425.56607"/> </g> <g style="fill:rgb(255,255,255); fill-opacity:1.0; stroke-linejoin: miter"> <path d="M440.992,450.56467Q413.20914,458.37552,402.6991,459.4565Q391.61307,460.92892,378.5518,458.0913Q374.24734,475.1369,375.79327,491.4158Q377.23386,509.07797,385.67276,545.2622Q397.2413,518.79144,412.713,491.4809Q422.1902,474.94678,440.9765,450.58676"/> </g> <g style="fill:rgb(255,208,169); fill-opacity:1.0; stroke-linejoin: miter"> <path d="M303.9413,577.35754Q300.5798,577.83417,300.35968,584.869Q265.56836,595.6372,264.64853,598.1096Q262.26334,600.1788,270.10568,601.9163L288.3414,598.7377Q280.5451,600.57074,273.8267,605.9914Q270.5058,608.53876,265.28513,613.2671Q265.80823,615.12115,266.43817,615.65173Q267.57898,616.8784,270.75,615.71313L284.32455,609.04156Q287.84497,607.4424,290.80936,606.71173Q296.30157,605.20557,305.54556,605.978Q306.59824,609.4052,308.4672,610.0264Q310.00827,610.8413,316.20123,610.44934Q321.81528,623.57465,331.6426,628.2994Q341.61948,633.5885,366.04742,637.8074L368.04227,611.7554Q354.80862,607.4397,349.31744,604.5568Q346.4516,603.4454,332.74106,594.10266Q330.32172,592.6232,328.1505,591.70624Q323.2762,589.4764,313.82648,588.8137Q309.54163,582.00226,307.58795,579.7997Q305.54407,577.3657,303.96964,577.3577"/> </g> <g style="fill:rgb(255,208,169); fill-opacity:1.0; stroke-linejoin: miter"> <path d="M318.29288,334.26886Q300.5505,334.09763,302.44693,346.0659Q303.28168,353.6052,310.22055,364.63773Q313.26038,369.37845,316.3585,372.90732Q318.7624,375.78574,323.5105,379.1931Q324.2985,379.9317,324.62823,380.85004Q325.1304,382.1149,325.22568,385.01187Q325.17267,401.14526,325.47818,402.72568Q325.79996,407.24335,326.87323,409.60162Q329.13205,415.23224,339.4819,410.63348Q338.6959,414.02222,339.67072,415.43848Q340.48297,416.94537,344.1532,419.5102Q345.6214,423.47528,346.83334,424.70178Q347.85776,425.8979,350.1767,427.32306Q352.0423,439.06992,356.23657,440.4549Q358.4023,441.41684,361.6839,440.56537Q363.3203,440.16617,365.90408,439.126Q378.839,433.24997,379.37506,433.379Q383.39258,432.1983,384.37396,433.49695Q386.02805,435.17398,384.49475,441.42212Q383.77496,444.35522,382.4454,448.18954L377.58636,461.48932Q395.10443,460.3003,401.93808,460.60602Q405.57095,460.4162,409.1648,459.90826Q418.18167,458.73907,440.37207,452.66574L433.3344,391.6042Q424.2016,378.27667,422.22287,370.26196Q420.45496,366.45895,419.76886,344.50345Q419.36887,341.14767,418.53928,339.39587Q415.41736,333.81067,407.9399,337.6923Q404.80432,339.44257,402.71063,342.155L396.74625,351.98782Q395.2251,353.68207,392.83838,353.54996Q391.26346,353.488,388.28293,352.41776Q372.47513,345.9485,366.62646,344.08313Q359.0558,341.53482,351.19308,339.49692Q330.9612,334.3162,318.39484,334.26895"/> </g> <g style="fill:rgb(0,0,0); fill-opacity:1.0; stroke-linejoin: miter"> <path d="M439.55646,427.83893Q446.16574,476.4307,447.69614,490.66492Q448.66895,499.3754,449.07858,505.8488Q449.28583,507.92096,449.83282,524.2762Q450.00134,527.75055,450.2476,530.4676Q450.91806,538.1304,452.56046,544.79626Q455.55032,557.2635,463.0943,567.9265Q470.77252,578.2806,476.66583,578.2102Q484.10522,578.1758,487.51193,556.11554Q488.82687,547.19385,489.08075,537.0708Q489.3812,532.3469,488.37054,511.71362Q488.31308,507.62674,488.73447,504.30533Q489.12042,501.10602,490.26205,497.67343Q496.10712,482.98953,496.28058,481.55722Q497.62463,476.95975,497.97897,472.46933Q498.6852,464.03662,495.5457,451.45428Q492.84753,440.50778,487.39215,426.306L439.5658,427.83862"/> </g> <g style="fill:rgb(78,67,58); fill-opacity:1.0; stroke-linejoin: miter"> <path d="M94.62249,469.0225L139.21086,600.7037Q187.01907,613.40564,228.22778,620.75653Q265.48056,627.6669,361.74677,641.106L360.6009,636.8135L228.74347,611.157L177.43124,473.61606L94.862946,469.03555"/> </g> <g style="fill:rgb(255,208,169); fill-opacity:1.0; stroke-linejoin: miter"> <path d="M179.93452,578.2247Q178.02448,579.37354,177.2145,583.93317Q176.55539,586.3485,175.79558,601.2617Q175.61533,603.1686,175.2445,603.6169Q174.91792,604.1818,174.13072,602.65045L172.09589,597.0532Q167.21242,593.4522,166.1807,596.3552Q165.25514,598.28625,165.40668,607.1221Q163.85144,609.86285,163.81671,611.1709Q163.68663,612.7836,164.79573,614.13184Q165.70418,615.2809,167.95952,616.6328L180.85779,623.1924L189.99939,629.35095Q192.95609,631.2355,196.64232,633.2573Q206.73062,638.78687,229.53258,649.6842L236.04878,647.69086L254.82848,625.8205Q215.65143,615.5591,207.61197,616.4869Q201.48453,597.3108,198.40163,593.5408Q195.17792,588.5133,188.5061,591.4104Q188.09323,583.88025,186.09436,580.9956Q183.14548,576.8276,180.07405,578.1421"/> </g> <g style="fill:rgb(250,84,34); fill-opacity:0.07450981; stroke-linejoin: miter"> <path d="M421.34576,373.82813L420.91742,458.13513L436.82104,453.6942L421.34894,373.84448L421.34576,373.82813 Z M410.00375,413.4211Q398.00122,423.55887,393.2082,426.7366Q388.2437,430.18512,381.72107,432.61957L385.3148,436.72522Q382.40372,451.56964,378.98322,458.51328Q385.45065,448.7895,410.00455,413.42953L410.00784,413.4211 Z M378.93433,458.5863L378.93433,458.5863Q374.41888,465.32703,373.72134,466.88028Q373.62082,467.11008,373.67203,467.11008Q373.75427,467.11008,374.22787,466.5174L375.93597,464.0124Q377.6392,461.2977,378.91772,458.6351L378.93814,458.5863 Z"/> </g> </g> </svg>